<svg width="186" height="27" viewBox="0 0 186 27" fill="none" xmlns="http://www.w3.org/2000/svg">
<g clip-path="url(#clip0_119_11)">
<path d="M115.472 7.84284C111.095 7.84284 109.401 8.99998 109.401 10.3371C109.401 11.34 110 11.9828 110.157 12.1371C110.73 11.7771 112.371 10.8514 114.977 10.8514C118.286 10.8514 119.459 12.3943 119.459 14.0657V14.5543C111.798 15.3514 107.89 16.7657 107.89 21.2914C107.89 24.3771 110.235 26.6914 113.518 26.6914C116.827 26.6914 118.703 24.9943 119.537 24.2486V26.3314H122.872V13.9371C122.898 9.92569 119.954 7.84284 115.472 7.84284ZM119.459 21.3428C117.921 22.9114 116.358 23.6828 114.352 23.6828C112.423 23.6828 111.381 22.4486 111.381 21.1628C111.381 19.3114 112.892 17.7428 119.433 17.1257V21.3428H119.459ZM175.558 7.84284C171.18 7.84284 169.487 8.99998 169.487 10.3371C169.487 11.34 170.086 11.9828 170.242 12.1371C170.816 11.7771 172.457 10.8514 175.063 10.8514C178.372 10.8514 179.545 12.3943 179.545 14.0657V14.5543C171.884 15.3514 167.976 16.7657 167.976 21.2914C167.976 24.3771 170.321 26.6914 173.604 26.6914C176.913 26.6914 178.789 24.9943 179.623 24.2486V26.3314H182.958V13.9371C182.958 9.92569 180.014 7.84284 175.558 7.84284ZM179.545 21.3428C178.007 22.9114 176.444 23.6828 174.438 23.6828C172.509 23.6828 171.467 22.4486 171.467 21.1628C171.467 19.3114 172.978 17.7428 179.518 17.1257V21.3428H179.545ZM67.6587 4.57712C66.4601 4.57712 65.4699 3.62569 65.4699 2.44284C65.4699 1.25998 66.4601 0.282837 67.6587 0.282837C68.8573 0.282837 69.8213 1.25998 69.8213 2.44284C69.7953 3.62569 68.8573 4.57712 67.6587 4.57712ZM65.9129 26.3314V8.22855H69.3523V26.3314H65.9129ZM31.6749 18.7457C36.7819 18.7457 43.5044 17.9743 43.5044 12.6771C43.5044 10.0286 41.2636 7.84284 37.4854 7.84284C31.1277 7.84284 28.0791 12.24 28.0791 17.5628C28.0791 22.6543 31.4143 26.7171 37.3551 26.7171C40.6643 26.7171 43.1396 25.8171 43.1396 23.9657C43.1396 23.0914 42.5664 22.3971 42.4361 22.2943C42.0974 22.5 40.3256 23.7085 37.5636 23.7085C33.6812 23.6828 32.0657 21.2143 31.6749 18.7457ZM31.6488 16.1228C31.8051 13.4486 33.5509 10.7228 37.3291 10.7228C39.0228 10.7228 40.0389 11.6743 40.0389 12.8314C40.0389 15.4286 35.2706 16.1228 31.6488 16.1228ZM61.7439 25.7914C61.0404 25.9714 58.8256 26.7171 55.5946 26.7171C48.5333 26.7171 45.7974 22.8343 45.7974 17.6143C45.7974 11.0057 49.6016 7.84284 53.9009 7.84284C56.2981 7.84284 57.8875 8.58855 58.3305 8.79427V0.71998H61.7178V25.7914H61.7439ZM58.3565 11.8543C57.9396 11.5971 56.4544 10.8514 54.5523 10.8514C51.3995 10.8514 49.2108 13.0114 49.2108 17.4857C49.2108 21.4714 51.2432 23.6828 55.5946 23.6828C56.6108 23.6828 57.5488 23.5285 58.3565 23.2971V11.8543ZM4.13332 17.2543C4.13332 13.0371 6.3481 10.8514 9.73543 10.8514C12.2889 10.8514 13.9566 11.8028 14.5037 12.1371C14.9206 11.7514 15.2594 11.0571 15.2594 10.3371C15.2594 9.12855 13.8263 7.84284 9.60515 7.84284C4.6805 7.84284 0.563599 11.1086 0.563599 17.3057C0.563599 23.3486 4.28965 26.7171 9.2143 26.7171C12.1587 26.7171 14.5298 25.7914 15.2073 25.4314V22.0628C14.4516 22.5771 12.0284 23.6828 9.78754 23.6828C6.55656 23.6828 4.13332 21.5228 4.13332 17.2543ZM100.985 17.1C103.2 14.6314 105.18 11.7 106.587 8.09998L103.408 6.94284C101.402 12.1628 98.3791 15.6857 94.7312 18.5914V0.71998H91.3178V26.3314H94.7312V22.5514C96.0601 21.6257 97.2326 20.6743 98.5094 19.5171L101.636 24.7371C102.418 26.0228 103.46 26.7171 105.023 26.7171C105.909 26.7171 106.404 26.4343 106.613 26.3314L100.985 17.1ZM21.5389 10.5171C21.5389 8.74284 20.5228 7.84284 19.1678 7.84284C18.8551 7.84284 18.5164 7.89427 18.1777 8.02284V26.3314H21.5911V15.6343C22.5551 13.3714 24.8742 11.2628 27.8967 11.2628V7.84284C24.6397 7.84284 22.7897 9.38569 21.5389 11.7V10.5171ZM130.48 10.5171C130.48 8.74284 129.464 7.84284 128.109 7.84284C127.797 7.84284 127.458 7.89427 127.119 8.02284V26.3314H130.533V15.6343C131.497 13.3714 133.816 11.2628 136.838 11.2628V7.84284C133.581 7.84284 131.731 9.38569 130.48 11.7V10.5171ZM142.44 10.5943V10.5171C142.44 8.74284 141.476 7.84284 140.121 7.84284C139.809 7.84284 139.47 7.89427 139.131 8.02284V26.3314H142.545V13.8086C143.561 12.4457 145.619 10.8514 147.443 10.8514C149.449 10.8514 150.44 12.1371 150.44 13.9886V26.3314H153.853V13.8086C155.026 12.24 156.928 10.8514 158.752 10.8514C160.758 10.8514 161.748 12.1371 161.748 13.9886V26.3314H165.161V13.8086C165.161 10.3886 163.598 7.84284 159.377 7.84284C156.797 7.84284 154.895 9.20569 153.358 10.8771C152.837 9.66855 151.664 7.84284 148.068 7.84284C145.593 7.84284 143.821 9.12855 142.44 10.5943ZM73.5734 3.85712V21.3943C73.5734 24.8657 75.7622 26.7171 78.9932 26.7171C80.5305 26.7171 81.9115 26.3314 82.2242 26.2285V23.3228C81.9375 23.4 80.9995 23.6828 79.7488 23.6828C77.8467 23.6828 76.9868 22.5257 76.9868 20.9828V11.0571H81.7291V8.22855H76.9868V6.37712C76.9868 4.60284 75.9185 3.70284 74.5375 3.70284C74.2249 3.67712 73.8861 3.72855 73.5734 3.85712Z" fill="#7C7D86"/>
<path d="M180.561 4.39709H182.254V4.73138H181.629V6.63424H181.186V4.73138H180.561V4.39709ZM184.547 6.65995C184.547 6.09424 184.495 5.39995 184.365 4.83424C184.078 5.24567 183.896 5.73424 183.818 6.19709H183.557C183.479 5.73424 183.271 5.24567 183.01 4.83424C182.88 5.39995 182.828 6.09424 182.828 6.65995H182.385C182.385 5.93995 182.463 5.11709 182.645 4.42281H183.036C183.271 4.70567 183.531 5.14281 183.662 5.55424C183.818 5.14281 184.052 4.67995 184.287 4.42281H184.678C184.86 5.11709 184.938 5.96567 184.938 6.65995H184.547Z" fill="#7C7D86"/>
</g>
<defs>
<clipPath id="clip0_119_11">
<rect width="185" height="27" fill="white" transform="translate(0.30304)"/>
</clipPath>
</defs>
</svg>
